# xmcd
#
# Track frame offsets: 
#        150
#        16614
#        32189
#        49092
#        64717
#        79350
#        95450
#        113452
#        129043
#        144141
#        160562
#        176228
#        193255
#        207839
#        226240
#        243389
#        259367
#        273298
#        288065
#        305763
#
# Disc length: 4311 seconds
#
# Revision: 1
# Processed by: cddbd v1.5.2PL0 Copyright (c) Steve Scherf et al.
# Submitted via: ExactAudioCopy v1.1
#
DISCID=0a10d514
DTITLE=Lovebugs - Only Forever - The Best Of Lovebugs
DYEAR=2009
DGENRE=Rock
TTITLE0=Angel Heart (Radio Edit)
TTITLE1=Under My Skin (Radio Edit)
TTITLE2=The Key (Radio Edit)
TTITLE3=Shine (Radio Edit)
TTITLE4=Everybody Knows I Love You (Radio Edit)
TTITLE5=Flavour Of The Day (Radio Edit)
TTITLE6=Music Makes My World Go Round (Radio Edit)
TTITLE7=Avalon (Feat. Lene Marlin)
TTITLE8=The Highest Heights (Radio Edit)
TTITLE9='72 (Radio Edit)
TTITLE10=Coffee And Cigarettes (Radio Edit)
TTITLE11=A Love Like Tides (Unplugged)
TTITLE12=Listen To The Silence (Radio Edit)
TTITLE13=21st Century Man (Radio Edit)
TTITLE14=Bitter Moon (Radio Edit)
TTITLE15=Marilyn (Radio Edit)
TTITLE16=Fantastic (Radio Edit)
TTITLE17=Wall Of Sound (Radio Edit)
TTITLE18=A Love Like This (Radio Edit)
TTITLE19=Only Forever (Radio Edit)
EXTD=
EXTT0=
EXTT1=
EXTT2=
EXTT3=
EXTT4=
EXTT5=
EXTT6=
EXTT7=
EXTT8=
EXTT9=
EXTT10=
EXTT11=
EXTT12=
EXTT13=
EXTT14=
EXTT15=
EXTT16=
EXTT17=
EXTT18=
EXTT19=
PLAYORDER=
